<mxfile host="app.diagrams.net" modified="2023-05-03T20:48:47.217Z" agent="Mozilla/5.0 (Windows NT 10.0; Win64; x64) AppleWebKit/537.36 (KHTML, like Gecko) Chrome/112.0.0.0 Safari/537.36" etag="yVVDKWRPaiUPMK8tdViR" version="21.2.7" type="github">
  <diagram name="Página-1" id="lVMmQmg_A-L9ifkmrl34">
    <mxGraphModel dx="1050" dy="581" grid="1" gridSize="10" guides="1" tooltips="1" connect="1" arrows="1" fold="1" page="1" pageScale="1" pageWidth="827" pageHeight="1169" math="0" shadow="0">
      <root>
        <mxCell id="0" />
        <mxCell id="1" parent="0" />
        <mxCell id="QjfynNjf7NyK2TKp_Ida-1" value="" style="rounded=0;whiteSpace=wrap;html=1;" vertex="1" parent="1">
          <mxGeometry x="194" y="40" width="486" height="520" as="geometry" />
        </mxCell>
        <mxCell id="QjfynNjf7NyK2TKp_Ida-4" value="Filho de Santo" style="shape=umlActor;verticalLabelPosition=bottom;verticalAlign=top;html=1;" vertex="1" parent="1">
          <mxGeometry x="120" y="280" width="30" height="60" as="geometry" />
        </mxCell>
        <mxCell id="QjfynNjf7NyK2TKp_Ida-5" style="rounded=0;orthogonalLoop=1;jettySize=auto;html=1;endArrow=none;endFill=0;" edge="1" parent="1" source="QjfynNjf7NyK2TKp_Ida-8" target="QjfynNjf7NyK2TKp_Ida-20">
          <mxGeometry relative="1" as="geometry" />
        </mxCell>
        <mxCell id="QjfynNjf7NyK2TKp_Ida-6" style="rounded=0;orthogonalLoop=1;jettySize=auto;html=1;endArrow=none;endFill=0;" edge="1" parent="1" source="QjfynNjf7NyK2TKp_Ida-8" target="QjfynNjf7NyK2TKp_Ida-34">
          <mxGeometry relative="1" as="geometry" />
        </mxCell>
        <mxCell id="QjfynNjf7NyK2TKp_Ida-50" style="rounded=0;orthogonalLoop=1;jettySize=auto;html=1;endArrow=none;endFill=0;" edge="1" parent="1" source="QjfynNjf7NyK2TKp_Ida-8" target="QjfynNjf7NyK2TKp_Ida-49">
          <mxGeometry relative="1" as="geometry" />
        </mxCell>
        <mxCell id="QjfynNjf7NyK2TKp_Ida-53" style="edgeStyle=orthogonalEdgeStyle;rounded=0;orthogonalLoop=1;jettySize=auto;html=1;endArrow=block;endFill=0;" edge="1" parent="1" source="QjfynNjf7NyK2TKp_Ida-8" target="QjfynNjf7NyK2TKp_Ida-11">
          <mxGeometry relative="1" as="geometry">
            <Array as="points">
              <mxPoint x="800" y="150" />
              <mxPoint x="800" y="450" />
            </Array>
          </mxGeometry>
        </mxCell>
        <mxCell id="QjfynNjf7NyK2TKp_Ida-8" value="Casa de Santo" style="shape=umlActor;verticalLabelPosition=bottom;verticalAlign=top;html=1;" vertex="1" parent="1">
          <mxGeometry x="740" y="120" width="30" height="60" as="geometry" />
        </mxCell>
        <mxCell id="QjfynNjf7NyK2TKp_Ida-10" style="rounded=0;orthogonalLoop=1;jettySize=auto;html=1;endArrow=none;endFill=0;" edge="1" parent="1" source="QjfynNjf7NyK2TKp_Ida-11" target="QjfynNjf7NyK2TKp_Ida-34">
          <mxGeometry relative="1" as="geometry" />
        </mxCell>
        <mxCell id="QjfynNjf7NyK2TKp_Ida-11" value="Babá/Yá" style="shape=umlActor;verticalLabelPosition=bottom;verticalAlign=top;html=1;" vertex="1" parent="1">
          <mxGeometry x="730" y="420" width="30" height="60" as="geometry" />
        </mxCell>
        <mxCell id="QjfynNjf7NyK2TKp_Ida-12" style="rounded=0;orthogonalLoop=1;jettySize=auto;html=1;endArrow=none;endFill=0;exitX=1;exitY=0.3333333333333333;exitDx=0;exitDy=0;exitPerimeter=0;" edge="1" parent="1" source="QjfynNjf7NyK2TKp_Ida-4" target="QjfynNjf7NyK2TKp_Ida-17">
          <mxGeometry relative="1" as="geometry">
            <mxPoint x="315.01098033481094" y="246.35714798397532" as="sourcePoint" />
          </mxGeometry>
        </mxCell>
        <mxCell id="QjfynNjf7NyK2TKp_Ida-14" style="rounded=0;orthogonalLoop=1;jettySize=auto;html=1;endArrow=none;endFill=0;exitX=0.72;exitY=0.71;exitDx=0;exitDy=0;exitPerimeter=0;" edge="1" parent="1" source="QjfynNjf7NyK2TKp_Ida-4" target="QjfynNjf7NyK2TKp_Ida-18">
          <mxGeometry relative="1" as="geometry">
            <mxPoint x="275" y="300" as="sourcePoint" />
          </mxGeometry>
        </mxCell>
        <mxCell id="QjfynNjf7NyK2TKp_Ida-15" style="rounded=0;orthogonalLoop=1;jettySize=auto;html=1;endArrow=none;endFill=0;" edge="1" parent="1" source="QjfynNjf7NyK2TKp_Ida-17" target="QjfynNjf7NyK2TKp_Ida-34">
          <mxGeometry relative="1" as="geometry">
            <mxPoint x="339.22322921281807" y="274.62407250332296" as="sourcePoint" />
          </mxGeometry>
        </mxCell>
        <mxCell id="QjfynNjf7NyK2TKp_Ida-54" style="rounded=0;orthogonalLoop=1;jettySize=auto;html=1;endArrow=open;endFill=0;dashed=1;" edge="1" parent="1" source="QjfynNjf7NyK2TKp_Ida-17" target="QjfynNjf7NyK2TKp_Ida-20">
          <mxGeometry relative="1" as="geometry" />
        </mxCell>
        <mxCell id="QjfynNjf7NyK2TKp_Ida-17" value="Pesquisa endereço de casa de Santo" style="ellipse;whiteSpace=wrap;html=1;" vertex="1" parent="1">
          <mxGeometry x="210" y="201" width="130" height="70" as="geometry" />
        </mxCell>
        <mxCell id="QjfynNjf7NyK2TKp_Ida-18" value="Pesquisa endereço Babá/Yá de Santo" style="ellipse;whiteSpace=wrap;html=1;" vertex="1" parent="1">
          <mxGeometry x="210" y="380" width="130" height="70" as="geometry" />
        </mxCell>
        <mxCell id="QjfynNjf7NyK2TKp_Ida-20" value="Enxergará dados da casa, fotos, quantidade de filhos, clientes e infos.&amp;nbsp;" style="ellipse;whiteSpace=wrap;html=1;" vertex="1" parent="1">
          <mxGeometry x="260" y="76" width="170" height="90" as="geometry" />
        </mxCell>
        <mxCell id="QjfynNjf7NyK2TKp_Ida-25" value="Aplicativo Saravá" style="text;align=center;fontStyle=1;verticalAlign=middle;spacingLeft=3;spacingRight=3;strokeColor=none;rotatable=0;points=[[0,0.5],[1,0.5]];portConstraint=eastwest;html=1;" vertex="1" parent="1">
          <mxGeometry x="380.5" y="50" width="113" height="26" as="geometry" />
        </mxCell>
        <mxCell id="QjfynNjf7NyK2TKp_Ida-32" style="rounded=0;orthogonalLoop=1;jettySize=auto;html=1;endArrow=none;endFill=0;dashed=1;startArrow=open;startFill=0;" edge="1" parent="1" source="QjfynNjf7NyK2TKp_Ida-34" target="QjfynNjf7NyK2TKp_Ida-38">
          <mxGeometry relative="1" as="geometry" />
        </mxCell>
        <mxCell id="QjfynNjf7NyK2TKp_Ida-43" style="rounded=0;orthogonalLoop=1;jettySize=auto;html=1;endArrow=none;endFill=0;" edge="1" parent="1" source="QjfynNjf7NyK2TKp_Ida-34" target="QjfynNjf7NyK2TKp_Ida-18">
          <mxGeometry relative="1" as="geometry" />
        </mxCell>
        <mxCell id="QjfynNjf7NyK2TKp_Ida-51" style="rounded=0;orthogonalLoop=1;jettySize=auto;html=1;endArrow=open;endFill=0;dashed=1;" edge="1" parent="1" source="QjfynNjf7NyK2TKp_Ida-34" target="QjfynNjf7NyK2TKp_Ida-49">
          <mxGeometry relative="1" as="geometry" />
        </mxCell>
        <mxCell id="QjfynNjf7NyK2TKp_Ida-34" value="Contatar por chat e agendar atendimento visualizando datas de atendimentos" style="ellipse;whiteSpace=wrap;html=1;" vertex="1" parent="1">
          <mxGeometry x="280" y="270" width="170" height="90" as="geometry" />
        </mxCell>
        <mxCell id="QjfynNjf7NyK2TKp_Ida-37" style="rounded=0;orthogonalLoop=1;jettySize=auto;html=1;entryX=0.5;entryY=0.5;entryDx=0;entryDy=0;entryPerimeter=0;dashed=1;endArrow=open;endFill=0;" edge="1" parent="1" source="QjfynNjf7NyK2TKp_Ida-38" target="QjfynNjf7NyK2TKp_Ida-11">
          <mxGeometry relative="1" as="geometry" />
        </mxCell>
        <mxCell id="QjfynNjf7NyK2TKp_Ida-38" value="Poderá se vincular a casa como filho(a) de Santo" style="ellipse;whiteSpace=wrap;html=1;" vertex="1" parent="1">
          <mxGeometry x="334" y="450" width="160" height="80" as="geometry" />
        </mxCell>
        <mxCell id="QjfynNjf7NyK2TKp_Ida-39" value="Extends" style="text;html=1;strokeColor=none;fillColor=none;align=center;verticalAlign=middle;whiteSpace=wrap;rounded=0;rotation=0;" vertex="1" parent="1">
          <mxGeometry x="545" y="450" width="60" height="20" as="geometry" />
        </mxCell>
        <mxCell id="QjfynNjf7NyK2TKp_Ida-40" value="Extends" style="text;html=1;strokeColor=none;fillColor=none;align=center;verticalAlign=middle;whiteSpace=wrap;rounded=0;" vertex="1" parent="1">
          <mxGeometry x="360" y="399" width="60" height="21" as="geometry" />
        </mxCell>
        <mxCell id="QjfynNjf7NyK2TKp_Ida-45" style="rounded=0;orthogonalLoop=1;jettySize=auto;html=1;endArrow=open;endFill=0;dashed=1;" edge="1" parent="1" source="QjfynNjf7NyK2TKp_Ida-44" target="QjfynNjf7NyK2TKp_Ida-34">
          <mxGeometry relative="1" as="geometry" />
        </mxCell>
        <mxCell id="QjfynNjf7NyK2TKp_Ida-47" style="rounded=0;orthogonalLoop=1;jettySize=auto;html=1;entryX=0.427;entryY=0.263;entryDx=0;entryDy=0;entryPerimeter=0;dashed=1;endArrow=open;endFill=0;" edge="1" parent="1" source="QjfynNjf7NyK2TKp_Ida-44" target="QjfynNjf7NyK2TKp_Ida-11">
          <mxGeometry relative="1" as="geometry" />
        </mxCell>
        <mxCell id="QjfynNjf7NyK2TKp_Ida-44" value="Poderá postar fotos, vídeos e textos no mural da Casa de Santo" style="ellipse;whiteSpace=wrap;html=1;" vertex="1" parent="1">
          <mxGeometry x="480" y="270" width="190" height="80" as="geometry" />
        </mxCell>
        <mxCell id="QjfynNjf7NyK2TKp_Ida-46" value="Extends" style="text;html=1;strokeColor=none;fillColor=none;align=center;verticalAlign=middle;whiteSpace=wrap;rounded=0;rotation=-90;" vertex="1" parent="1">
          <mxGeometry x="440" y="304.5" width="60" height="21" as="geometry" />
        </mxCell>
        <mxCell id="QjfynNjf7NyK2TKp_Ida-48" value="Extends" style="text;html=1;strokeColor=none;fillColor=none;align=center;verticalAlign=middle;whiteSpace=wrap;rounded=0;" vertex="1" parent="1">
          <mxGeometry x="620" y="350" width="60" height="21" as="geometry" />
        </mxCell>
        <mxCell id="QjfynNjf7NyK2TKp_Ida-49" value="Enxergará as datas de obrigações" style="ellipse;whiteSpace=wrap;html=1;" vertex="1" parent="1">
          <mxGeometry x="414" y="165.5" width="146" height="54.5" as="geometry" />
        </mxCell>
        <mxCell id="QjfynNjf7NyK2TKp_Ida-52" value="Incluid" style="text;html=1;strokeColor=none;fillColor=none;align=center;verticalAlign=middle;whiteSpace=wrap;rounded=0;" vertex="1" parent="1">
          <mxGeometry x="407" y="234.5" width="60" height="21" as="geometry" />
        </mxCell>
        <mxCell id="QjfynNjf7NyK2TKp_Ida-55" value="Incluid" style="text;html=1;strokeColor=none;fillColor=none;align=center;verticalAlign=middle;whiteSpace=wrap;rounded=0;" vertex="1" parent="1">
          <mxGeometry x="280" y="170" width="60" height="21" as="geometry" />
        </mxCell>
      </root>
    </mxGraphModel>
  </diagram>
</mxfile>
